<mxfile host="Electron" agent="Mozilla/5.0 (Windows NT 10.0; Win64; x64) AppleWebKit/537.36 (KHTML, like Gecko) draw.io/26.0.9 Chrome/128.0.6613.186 Electron/32.2.5 Safari/537.36" version="26.0.9">
  <diagram id="UqGkNwLOmb2u6tNrCc7U" name="overview">
    <mxGraphModel dx="2261" dy="884" grid="1" gridSize="10" guides="1" tooltips="1" connect="1" arrows="1" fold="1" page="1" pageScale="1" pageWidth="827" pageHeight="1169" math="0" shadow="0">
      <root>
        <mxCell id="0" />
        <mxCell id="1" parent="0" />
        <mxCell id="kJNTBaoaUkR1BhxwP52Y-1" value="" style="rounded=1;whiteSpace=wrap;html=1;snapToPoint=1;points=[[0.1,0],[0.2,0],[0.3,0],[0.4,0],[0.5,0],[0.6,0],[0.7,0],[0.8,0],[0.9,0],[0,0.1],[0,0.3],[0,0.5],[0,0.7],[0,0.9],[0.1,1],[0.2,1],[0.3,1],[0.4,1],[0.5,1],[0.6,1],[0.7,1],[0.8,1],[0.9,1],[1,0.1],[1,0.3],[1,0.5],[1,0.7],[1,0.9]];fillColor=#E6E6E6;dashed=1;dashPattern=1 4;" parent="1" vertex="1">
          <mxGeometry x="-260" y="180" width="400" height="70" as="geometry" />
        </mxCell>
        <mxCell id="kJNTBaoaUkR1BhxwP52Y-2" value="" style="rounded=1;whiteSpace=wrap;html=1;snapToPoint=1;points=[[0.1,0],[0.2,0],[0.3,0],[0.4,0],[0.5,0],[0.6,0],[0.7,0],[0.8,0],[0.9,0],[0,0.1],[0,0.3],[0,0.5],[0,0.7],[0,0.9],[0.1,1],[0.2,1],[0.3,1],[0.4,1],[0.5,1],[0.6,1],[0.7,1],[0.8,1],[0.9,1],[1,0.1],[1,0.3],[1,0.5],[1,0.7],[1,0.9]];fillColor=#E6E6E6;dashed=1;dashPattern=1 4;" parent="1" vertex="1">
          <mxGeometry x="-120" y="180" width="260" height="70" as="geometry" />
        </mxCell>
        <mxCell id="kJNTBaoaUkR1BhxwP52Y-3" value="prov:Entity" style="rounded=0;whiteSpace=wrap;html=1;snapToPoint=1;points=[[0.1,0],[0.2,0],[0.3,0],[0.4,0],[0.5,0],[0.6,0],[0.7,0],[0.8,0],[0.9,0],[0,0.1],[0,0.3],[0,0.5],[0,0.7],[0,0.9],[0.1,1],[0.2,1],[0.3,1],[0.4,1],[0.5,1],[0.6,1],[0.7,1],[0.8,1],[0.9,1],[1,0.1],[1,0.3],[1,0.5],[1,0.7],[1,0.9]];fillColor=#E5CCFF;" parent="1" vertex="1">
          <mxGeometry x="-100" y="200" width="100" height="30" as="geometry" />
        </mxCell>
        <mxCell id="kJNTBaoaUkR1BhxwP52Y-4" value="fabio:Expression" style="rounded=0;whiteSpace=wrap;html=1;snapToPoint=1;points=[[0.1,0],[0.2,0],[0.3,0],[0.4,0],[0.5,0],[0.6,0],[0.7,0],[0.8,0],[0.9,0],[0,0.1],[0,0.3],[0,0.5],[0,0.7],[0,0.9],[0.1,1],[0.2,1],[0.3,1],[0.4,1],[0.5,1],[0.6,1],[0.7,1],[0.8,1],[0.9,1],[1,0.1],[1,0.3],[1,0.5],[1,0.7],[1,0.9]];fillColor=#CCCCFF;" parent="1" vertex="1">
          <mxGeometry x="-240" y="200" width="100" height="30" as="geometry" />
        </mxCell>
        <mxCell id="kJNTBaoaUkR1BhxwP52Y-5" value="dcat:resource" style="rounded=0;whiteSpace=wrap;html=1;snapToPoint=1;points=[[0.1,0],[0.2,0],[0.3,0],[0.4,0],[0.5,0],[0.6,0],[0.7,0],[0.8,0],[0.9,0],[0,0.1],[0,0.3],[0,0.5],[0,0.7],[0,0.9],[0.1,1],[0.2,1],[0.3,1],[0.4,1],[0.5,1],[0.6,1],[0.7,1],[0.8,1],[0.9,1],[1,0.1],[1,0.3],[1,0.5],[1,0.7],[1,0.9]];fillColor=#CCFFCC;" parent="1" vertex="1">
          <mxGeometry x="20" y="200" width="100" height="30" as="geometry" />
        </mxCell>
        <mxCell id="kJNTBaoaUkR1BhxwP52Y-6" value="" style="endArrow=block;html=1;fontColor=#000099;exitX=0;exitY=0.5;exitDx=0;exitDy=0;endFill=0;entryX=1;entryY=0.5;entryDx=0;entryDy=0;endSize=8;arcSize=0;rounded=0;" parent="1" source="kJNTBaoaUkR1BhxwP52Y-7" target="kJNTBaoaUkR1BhxwP52Y-5" edge="1">
          <mxGeometry width="50" height="50" relative="1" as="geometry">
            <mxPoint x="-205" y="410" as="sourcePoint" />
            <mxPoint x="70" y="400" as="targetPoint" />
          </mxGeometry>
        </mxCell>
        <mxCell id="kJNTBaoaUkR1BhxwP52Y-7" value="dcat:Dataset" style="rounded=0;whiteSpace=wrap;html=1;snapToPoint=1;points=[[0.1,0],[0.2,0],[0.3,0],[0.4,0],[0.5,0],[0.6,0],[0.7,0],[0.8,0],[0.9,0],[0,0.1],[0,0.3],[0,0.5],[0,0.7],[0,0.9],[0.1,1],[0.2,1],[0.3,1],[0.4,1],[0.5,1],[0.6,1],[0.7,1],[0.8,1],[0.9,1],[1,0.1],[1,0.3],[1,0.5],[1,0.7],[1,0.9]];fillColor=#FFFFCC;" parent="1" vertex="1">
          <mxGeometry x="200" y="200" width="100" height="30" as="geometry" />
        </mxCell>
        <mxCell id="kJNTBaoaUkR1BhxwP52Y-8" value="" style="endArrow=block;html=1;fontColor=#000099;exitX=0.8;exitY=0;exitDx=0;exitDy=0;endFill=0;entryX=0.8;entryY=1;entryDx=0;entryDy=0;endSize=8;arcSize=0;rounded=0;" parent="1" source="kJNTBaoaUkR1BhxwP52Y-9" target="kJNTBaoaUkR1BhxwP52Y-7" edge="1">
          <mxGeometry width="50" height="50" relative="1" as="geometry">
            <mxPoint x="-25" y="410" as="sourcePoint" />
            <mxPoint x="250" y="230" as="targetPoint" />
          </mxGeometry>
        </mxCell>
        <mxCell id="kJNTBaoaUkR1BhxwP52Y-9" value="dcat:Catalog" style="rounded=0;whiteSpace=wrap;html=1;snapToPoint=1;points=[[0.1,0],[0.2,0],[0.3,0],[0.4,0],[0.5,0],[0.6,0],[0.7,0],[0.8,0],[0.9,0],[0,0.1],[0,0.3],[0,0.5],[0,0.7],[0,0.9],[0.1,1],[0.2,1],[0.3,1],[0.4,1],[0.5,1],[0.6,1],[0.7,1],[0.8,1],[0.9,1],[1,0.1],[1,0.3],[1,0.5],[1,0.7],[1,0.9]];fillColor=#FFCCCC;" parent="1" vertex="1">
          <mxGeometry x="200" y="290" width="100" height="30" as="geometry" />
        </mxCell>
        <mxCell id="kJNTBaoaUkR1BhxwP52Y-10" value="" style="endArrow=block;html=1;fontColor=#000099;exitX=0.5;exitY=1;exitDx=0;exitDy=0;endFill=0;entryX=0.5;entryY=0;entryDx=0;entryDy=0;endSize=8;arcSize=0;rounded=0;" parent="1" source="kJNTBaoaUkR1BhxwP52Y-11" target="kJNTBaoaUkR1BhxwP52Y-5" edge="1">
          <mxGeometry width="50" height="50" relative="1" as="geometry">
            <mxPoint x="55" y="350" as="sourcePoint" />
            <mxPoint x="330" y="170" as="targetPoint" />
          </mxGeometry>
        </mxCell>
        <mxCell id="kJNTBaoaUkR1BhxwP52Y-11" value="dcat:DataService" style="rounded=0;whiteSpace=wrap;html=1;snapToPoint=1;points=[[0.1,0],[0.2,0],[0.3,0],[0.4,0],[0.5,0],[0.6,0],[0.7,0],[0.8,0],[0.9,0],[0,0.1],[0,0.3],[0,0.5],[0,0.7],[0,0.9],[0.1,1],[0.2,1],[0.3,1],[0.4,1],[0.5,1],[0.6,1],[0.7,1],[0.8,1],[0.9,1],[1,0.1],[1,0.3],[1,0.5],[1,0.7],[1,0.9]];fillColor=#CCFFFF;" parent="1" vertex="1">
          <mxGeometry x="20" y="50" width="100" height="30" as="geometry" />
        </mxCell>
        <mxCell id="kJNTBaoaUkR1BhxwP52Y-12" value="" style="endArrow=block;html=1;fontColor=#000099;exitX=0;exitY=0.3;exitDx=0;exitDy=0;endFill=0;entryX=1;entryY=0.3;entryDx=0;entryDy=0;endSize=8;arcSize=0;rounded=0;" parent="1" source="kJNTBaoaUkR1BhxwP52Y-13" target="kJNTBaoaUkR1BhxwP52Y-7" edge="1">
          <mxGeometry width="50" height="50" relative="1" as="geometry">
            <mxPoint x="225" y="320" as="sourcePoint" />
            <mxPoint x="500" y="140" as="targetPoint" />
          </mxGeometry>
        </mxCell>
        <mxCell id="kJNTBaoaUkR1BhxwP52Y-13" value="dcat:DatasetSeries" style="rounded=0;whiteSpace=wrap;html=1;snapToPoint=1;points=[[0.1,0],[0.2,0],[0.3,0],[0.4,0],[0.5,0],[0.6,0],[0.7,0],[0.8,0],[0.9,0],[0,0.1],[0,0.3],[0,0.5],[0,0.7],[0,0.9],[0.1,1],[0.2,1],[0.3,1],[0.4,1],[0.5,1],[0.6,1],[0.7,1],[0.8,1],[0.9,1],[1,0.1],[1,0.3],[1,0.5],[1,0.7],[1,0.9]];fillColor=#FFE6CC;" parent="1" vertex="1">
          <mxGeometry x="420" y="200" width="110" height="30" as="geometry" />
        </mxCell>
        <mxCell id="kJNTBaoaUkR1BhxwP52Y-14" value="dcat:Distribution" style="rounded=0;whiteSpace=wrap;html=1;snapToPoint=1;points=[[0.1,0],[0.2,0],[0.3,0],[0.4,0],[0.5,0],[0.6,0],[0.7,0],[0.8,0],[0.9,0],[0,0.1],[0,0.3],[0,0.5],[0,0.7],[0,0.9],[0.1,1],[0.2,1],[0.3,1],[0.4,1],[0.5,1],[0.6,1],[0.7,1],[0.8,1],[0.9,1],[1,0.1],[1,0.3],[1,0.5],[1,0.7],[1,0.9]];fillColor=#CCFFE6;" parent="1" vertex="1">
          <mxGeometry x="200" y="100" width="100" height="30" as="geometry" />
        </mxCell>
        <mxCell id="kJNTBaoaUkR1BhxwP52Y-15" value="" style="endArrow=classic;html=1;exitX=0.8;exitY=0;exitDx=0;exitDy=0;entryX=0.8;entryY=1;entryDx=0;entryDy=0;endSize=8;arcSize=0;rounded=0;" parent="1" source="kJNTBaoaUkR1BhxwP52Y-7" target="kJNTBaoaUkR1BhxwP52Y-14" edge="1">
          <mxGeometry width="50" height="50" relative="1" as="geometry">
            <mxPoint x="110" y="455" as="sourcePoint" />
            <mxPoint x="202.00000000000023" y="558.3299999999999" as="targetPoint" />
          </mxGeometry>
        </mxCell>
        <mxCell id="kJNTBaoaUkR1BhxwP52Y-16" value="&lt;div&gt;dcat:distribution&lt;/div&gt;" style="text;html=1;align=center;verticalAlign=middle;resizable=0;points=[];labelBackgroundColor=#ffffff;" parent="kJNTBaoaUkR1BhxwP52Y-15" vertex="1" connectable="0">
          <mxGeometry x="-0.1269" relative="1" as="geometry">
            <mxPoint as="offset" />
          </mxGeometry>
        </mxCell>
        <mxCell id="kJNTBaoaUkR1BhxwP52Y-17" value="" style="endArrow=classic;html=1;exitX=0.5;exitY=0;exitDx=0;exitDy=0;entryX=1;entryY=0.7;entryDx=0;entryDy=0;endSize=8;arcSize=0;rounded=0;" parent="1" source="kJNTBaoaUkR1BhxwP52Y-14" target="kJNTBaoaUkR1BhxwP52Y-11" edge="1">
          <mxGeometry width="50" height="50" relative="1" as="geometry">
            <mxPoint x="120" y="330" as="sourcePoint" />
            <mxPoint x="290" y="465" as="targetPoint" />
            <Array as="points">
              <mxPoint x="250" y="71" />
            </Array>
          </mxGeometry>
        </mxCell>
        <mxCell id="kJNTBaoaUkR1BhxwP52Y-18" value="&lt;div&gt;dcat:accessService&lt;/div&gt;" style="text;html=1;align=center;verticalAlign=middle;resizable=0;points=[];labelBackgroundColor=#ffffff;" parent="kJNTBaoaUkR1BhxwP52Y-17" vertex="1" connectable="0">
          <mxGeometry x="-0.1269" relative="1" as="geometry">
            <mxPoint x="40" y="15" as="offset" />
          </mxGeometry>
        </mxCell>
        <mxCell id="kJNTBaoaUkR1BhxwP52Y-19" value="" style="endArrow=classic;html=1;exitX=0.9;exitY=1;exitDx=0;exitDy=0;entryX=0.2;entryY=0;entryDx=0;entryDy=0;endSize=8;arcSize=0;rounded=0;" parent="1" source="kJNTBaoaUkR1BhxwP52Y-11" target="kJNTBaoaUkR1BhxwP52Y-7" edge="1">
          <mxGeometry width="50" height="50" relative="1" as="geometry">
            <mxPoint x="120" y="330" as="sourcePoint" />
            <mxPoint x="290" y="465" as="targetPoint" />
            <Array as="points">
              <mxPoint x="110" y="160" />
              <mxPoint x="160" y="160" />
              <mxPoint x="220" y="160" />
            </Array>
          </mxGeometry>
        </mxCell>
        <mxCell id="kJNTBaoaUkR1BhxwP52Y-20" value="&lt;div&gt;dcat:servesDataset&lt;/div&gt;" style="text;html=1;align=center;verticalAlign=middle;resizable=0;points=[];labelBackgroundColor=#ffffff;" parent="kJNTBaoaUkR1BhxwP52Y-19" vertex="1" connectable="0">
          <mxGeometry x="-0.1269" relative="1" as="geometry">
            <mxPoint x="3" y="-60" as="offset" />
          </mxGeometry>
        </mxCell>
        <mxCell id="kJNTBaoaUkR1BhxwP52Y-21" value="" style="endArrow=classic;html=1;exitX=1;exitY=0.7;exitDx=0;exitDy=0;entryX=0;entryY=0.7;entryDx=0;entryDy=0;endSize=8;arcSize=0;rounded=0;" parent="1" source="kJNTBaoaUkR1BhxwP52Y-7" target="kJNTBaoaUkR1BhxwP52Y-13" edge="1">
          <mxGeometry width="50" height="50" relative="1" as="geometry">
            <mxPoint x="300" y="250" as="sourcePoint" />
            <mxPoint x="470" y="385" as="targetPoint" />
          </mxGeometry>
        </mxCell>
        <mxCell id="kJNTBaoaUkR1BhxwP52Y-22" value="&lt;div&gt;dcat:inSeries&lt;/div&gt;" style="text;html=1;align=center;verticalAlign=middle;resizable=0;points=[];labelBackgroundColor=#ffffff;" parent="kJNTBaoaUkR1BhxwP52Y-21" vertex="1" connectable="0">
          <mxGeometry x="-0.1269" relative="1" as="geometry">
            <mxPoint x="8" as="offset" />
          </mxGeometry>
        </mxCell>
        <mxCell id="kJNTBaoaUkR1BhxwP52Y-23" value="" style="endArrow=classic;html=1;exitX=0.2;exitY=0;exitDx=0;exitDy=0;entryX=0.2;entryY=1;entryDx=0;entryDy=0;endSize=8;arcSize=0;rounded=0;" parent="1" source="kJNTBaoaUkR1BhxwP52Y-9" target="kJNTBaoaUkR1BhxwP52Y-7" edge="1">
          <mxGeometry width="50" height="50" relative="1" as="geometry">
            <mxPoint x="320" y="260" as="sourcePoint" />
            <mxPoint x="490" y="395" as="targetPoint" />
          </mxGeometry>
        </mxCell>
        <mxCell id="kJNTBaoaUkR1BhxwP52Y-24" value="&lt;div&gt;dcat:dataset&lt;/div&gt;" style="text;html=1;align=center;verticalAlign=middle;resizable=0;points=[];labelBackgroundColor=#ffffff;" parent="kJNTBaoaUkR1BhxwP52Y-23" vertex="1" connectable="0">
          <mxGeometry x="-0.1269" relative="1" as="geometry">
            <mxPoint x="4.17" as="offset" />
          </mxGeometry>
        </mxCell>
        <mxCell id="kJNTBaoaUkR1BhxwP52Y-25" value="" style="endArrow=classic;html=1;exitX=0.1;exitY=1;exitDx=0;exitDy=0;entryX=0.9;entryY=1;entryDx=0;entryDy=0;endSize=8;arcSize=0;rounded=0;" parent="1" source="kJNTBaoaUkR1BhxwP52Y-9" target="kJNTBaoaUkR1BhxwP52Y-9" edge="1">
          <mxGeometry width="50" height="50" relative="1" as="geometry">
            <mxPoint x="330" y="270" as="sourcePoint" />
            <mxPoint x="500" y="405" as="targetPoint" />
            <Array as="points">
              <mxPoint x="210" y="350" />
              <mxPoint x="290" y="350" />
            </Array>
          </mxGeometry>
        </mxCell>
        <mxCell id="kJNTBaoaUkR1BhxwP52Y-26" value="&lt;div&gt;dcat:catalog&lt;/div&gt;" style="text;html=1;align=center;verticalAlign=middle;resizable=0;points=[];labelBackgroundColor=#ffffff;" parent="kJNTBaoaUkR1BhxwP52Y-25" vertex="1" connectable="0">
          <mxGeometry x="-0.1269" relative="1" as="geometry">
            <mxPoint x="9" as="offset" />
          </mxGeometry>
        </mxCell>
        <mxCell id="kJNTBaoaUkR1BhxwP52Y-27" value="" style="endArrow=classic;html=1;exitX=1;exitY=0.5;exitDx=0;exitDy=0;endSize=8;arcSize=0;rounded=0;entryX=1;entryY=0.3;entryDx=0;entryDy=0;" parent="1" source="kJNTBaoaUkR1BhxwP52Y-9" target="kJNTBaoaUkR1BhxwP52Y-11" edge="1">
          <mxGeometry width="50" height="50" relative="1" as="geometry">
            <mxPoint x="390" y="465" as="sourcePoint" />
            <mxPoint x="590" y="390" as="targetPoint" />
            <Array as="points">
              <mxPoint x="550" y="305" />
              <mxPoint x="550" y="60" />
            </Array>
          </mxGeometry>
        </mxCell>
        <mxCell id="kJNTBaoaUkR1BhxwP52Y-28" value="&lt;div&gt;dcat:service&lt;/div&gt;" style="text;html=1;align=center;verticalAlign=middle;resizable=0;points=[];labelBackgroundColor=#ffffff;" parent="kJNTBaoaUkR1BhxwP52Y-27" vertex="1" connectable="0">
          <mxGeometry x="-0.1269" relative="1" as="geometry">
            <mxPoint x="-200" y="154" as="offset" />
          </mxGeometry>
        </mxCell>
        <mxCell id="kJNTBaoaUkR1BhxwP52Y-29" value="" style="endArrow=classic;html=1;exitX=0;exitY=0.5;exitDx=0;exitDy=0;entryX=0.5;entryY=1;entryDx=0;entryDy=0;endSize=8;arcSize=0;rounded=0;" parent="1" source="kJNTBaoaUkR1BhxwP52Y-9" target="kJNTBaoaUkR1BhxwP52Y-5" edge="1">
          <mxGeometry width="50" height="50" relative="1" as="geometry">
            <mxPoint x="-265" y="650" as="sourcePoint" />
            <mxPoint x="-265" y="410" as="targetPoint" />
            <Array as="points">
              <mxPoint x="70" y="305" />
            </Array>
          </mxGeometry>
        </mxCell>
        <mxCell id="kJNTBaoaUkR1BhxwP52Y-30" value="&lt;div&gt;dcat:resource&lt;/div&gt;" style="text;html=1;align=center;verticalAlign=middle;resizable=0;points=[];labelBackgroundColor=#ffffff;" parent="kJNTBaoaUkR1BhxwP52Y-29" vertex="1" connectable="0">
          <mxGeometry x="-0.1269" relative="1" as="geometry">
            <mxPoint x="25" as="offset" />
          </mxGeometry>
        </mxCell>
      </root>
    </mxGraphModel>
  </diagram>
</mxfile>
